<svg width="32" height="32" viewBox="0 0 32 32" fill="none" xmlns="http://www.w3.org/2000/svg">
  <rect width="32" height="32" rx="16" fill="#3B4252"/>
  <path d="M24 12H22V10C22 9.46957 21.7893 8.96086 21.4142 8.58579C21.0391 8.21071 20.5304 8 20 8H8C7.46957 8 6.96086 8.21071 6.58579 8.58579C6.21071 8.96086 6 9.46957 6 10V22C6 22.5304 6.21071 23.0391 6.58579 23.4142C6.96086 23.7893 7.46957 24 8 24H24C24.5304 24 25.0391 23.7893 25.4142 23.4142C25.7893 23.0391 26 22.5304 26 22V14C26 13.4696 25.7893 12.9609 25.4142 12.5858C25.0391 12.2107 24.5304 12 24 12ZM8 10H20V12H8V10ZM24 22H8V14H24V22Z" fill="#81A1C1"/>
  <path d="M22 18C22 18.5304 21.7893 19.0391 21.4142 19.4142C21.0391 19.7893 20.5304 20 20 20C19.4696 20 18.9609 19.7893 18.5858 19.4142C18.2107 19.0391 18 18.5304 18 18C18 17.4696 18.2107 16.9609 18.5858 16.5858C18.9609 16.2107 19.4696 16 20 16C20.5304 16 21.0391 16.2107 21.4142 16.5858C21.7893 16.9609 22 17.4696 22 18Z" fill="#81A1C1"/>
</svg> 